<svg width="32" height="30" viewBox="0 0 32 30" fill="none" xmlns="http://www.w3.org/2000/svg">
<path d="M15 12.8333C17.9915 12.8333 20.4166 10.4082 20.4166 7.41667C20.4166 4.42512 17.9915 2 15 2C12.0084 2 9.58331 4.42512 9.58331 7.41667" stroke="#296399" stroke-width="3" stroke-linecap="round"/>
<path d="M4.16663 12.8333H15" stroke="#296399" stroke-width="3" stroke-linecap="round"/>
<path d="M5.25 21.5H20.4167" stroke="#296399" stroke-width="3" stroke-linecap="round"/>
<path d="M17.1666 24.75C17.1666 26.5449 18.6217 28 20.4166 28C22.2116 28 23.6666 26.5449 23.6666 24.75C23.6666 22.9551 22.2116 21.5 20.4166 21.5" stroke="#296399" stroke-width="3" stroke-linecap="round"/>
<path d="M24.75 17.1667C27.7416 17.1667 30.1667 14.7416 30.1667 11.75C30.1667 8.75847 27.7416 6.33334 24.75 6.33334C24.429 6.33334 24.1146 6.36127 23.8089 6.41481" stroke="#296399" stroke-width="3" stroke-linecap="round"/>
<path d="M2 17.1667H24.75" stroke="#296399" stroke-width="3" stroke-linecap="round"/>
</svg>
