<svg width="37" height="27" viewBox="0 0 37 27" fill="none" xmlns="http://www.w3.org/2000/svg">
<path d="M8.08312 26.1358C6.01233 26.1333 4.02135 25.3852 2.51987 24.0456C1.01839 22.706 0.120616 20.8768 0.0112956 18.9343C-0.0980247 16.9918 0.589421 15.0838 1.93218 13.603C3.27493 12.1221 5.17085 11.181 7.22981 10.9734C6.62355 8.74007 6.98658 6.37198 8.23904 4.39008C9.4915 2.40818 11.5308 0.97482 13.9083 0.405324C16.2858 -0.164171 18.8068 0.176846 20.9166 1.35336C23.0265 2.52987 24.5524 4.4455 25.1586 6.67883C26.5726 6.49389 28.012 6.58422 29.3872 6.94421C30.7624 7.30419 32.044 7.92613 33.1524 8.77134C34.2608 9.61654 35.1722 10.6669 35.8299 11.8572C36.4876 13.0474 36.8775 14.3521 36.9755 15.6899C37.0734 17.0278 36.8773 18.3703 36.3992 19.6339C35.9212 20.8976 35.1715 22.0553 34.1967 23.035C33.2219 24.0148 32.043 24.7957 30.7332 25.3292C29.4234 25.8626 28.0107 26.1372 26.5831 26.1358H8.08312Z" fill="#296399"/>
</svg>
